<svg width="98" height="98" xmlns="http://www.w3.org/2000/svg" xmlns:xlink="http://www.w3.org/1999/xlink" overflow="hidden"><defs><clipPath id="clip0"><rect x="98" y="122" width="98" height="98"/></clipPath><clipPath id="clip1"><rect x="98" y="122" width="97" height="97"/></clipPath><clipPath id="clip2"><rect x="98" y="122" width="97" height="98"/></clipPath></defs><g clip-path="url(#clip0)" transform="translate(-98 -122)"><g clip-path="url(#clip1)"><g clip-path="url(#clip2)"><path d="M185.2 46.88C190.558 44.8068 194.066 39.6248 194 33.88 194 22.18 185.7 16.38 174.3 16.38L144.4 16.38 144.4 80 176.9 80C186.9 80 196.7 73 196.7 62.3 196.7 49.58 185.2 47 185.2 46.88ZM160 29.58 171.6 29.58C174.72 29.3866 177.406 31.759 177.599 34.879 177.6 34.8827 177.6 34.8863 177.6 34.89 177.6 35.1167 177.6 35.3467 177.6 35.58 177.534 38.8355 174.856 41.4291 171.6 41.39L159.9 41.39ZM171.7 66.68 160.1 66.68 160.1 54.18 171.4 54.18C177.1 54.18 179.8 56.68 179.8 60.38 179.8 65 176.4 66.68 171.7 66.68Z" fill="#ED0007" fill-rule="evenodd" transform="matrix(1.00349 0 0 1 98 122)"/><path d="M231.1 14.78C212.7 14.78 201.9 29.48 201.9 48.08 201.9 66.68 212.7 81.38 231.1 81.38 249.5 81.38 260.3 66.78 260.3 48.08 260.3 29.38 249.6 14.78 231.1 14.78ZM231.1 66.18C222.1 66.18 217.6 58.08 217.6 48.08 217.6 38.08 222.1 30.08 231.1 30.08 240.1 30.08 244.7 38.18 244.7 48.08 244.7 58.18 240.1 66.18 231.1 66.18Z" fill="#ED0007" fill-rule="evenodd" transform="matrix(1.00349 0 0 1 98 122)"/><path d="M294.2 41.38 292 40.88C286.6 39.78 282.3 38.38 282.3 34.48 282.3 30.28 286.4 28.58 290 28.58 294.965 28.6539 299.675 30.7916 303 34.48L312.9 24.68C308.4 19.58 301.1 14.68 289.7 14.68 276.3 14.68 266.1 22.18 266.1 34.68 266.1 46.08 274.3 51.68 284.3 53.78L286.5 54.28C294.8 55.98 297.9 57.28 297.9 61.28 297.9 65.08 294.5 67.58 289.3 67.58 283.1 67.58 277.5 64.88 273.2 59.38L263.1 69.38C268.7 76.08 275.8 81.28 289.5 81.28 301.4 81.28 314.1 74.48 314.1 60.58 314.3 46.08 303.3 43.28 294.2 41.38Z" fill="#ED0007" fill-rule="evenodd" transform="matrix(1.00349 0 0 1 98 122)"/><path d="M349.7 66.18C342.7 66.18 335.4 60.38 335.4 47.68 335.4 36.38 342.2 30.08 349.3 30.08 354.9 30.08 358.2 32.68 360.8 37.18L373.6 28.68C367.2 18.98 359.6 14.88 349.1 14.88 329.9 14.88 319.5 29.78 319.5 47.78 319.5 66.68 331 81.48 348.9 81.48 361.5 81.48 367.5 77.08 374 67.68L361.1 59C358.5 63.18 355.7 66.18 349.7 66.18Z" fill="#ED0007" fill-rule="evenodd" transform="matrix(1.00349 0 0 1 98 122)"/><path d="M416.3 16.38 416.3 39.78 397 39.78 397 16.38 380.3 16.38 380.3 79.98 397 79.98 397 54.88 416.3 54.88 416.3 79.98 433 79.98 433 16.38 416.3 16.38Z" fill="#ED0007" fill-rule="evenodd" transform="matrix(1.00349 0 0 1 98 122)"/><path d="M48.2 0.18C21.5799 0.18 7.62939e-07 21.7599 7.62939e-07 48.38 7.62939e-07 75.0001 21.5799 96.58 48.2 96.58 74.8201 96.58 96.4 75.0001 96.4 48.38 96.4 21.7599 74.8201 0.180001 48.2 0.180001ZM48.2 92.08C24.0652 92.08 4.5 72.5148 4.5 48.38 4.5 24.2452 24.0652 4.68 48.2 4.68 72.3348 4.68 91.9 24.2452 91.9 48.38 91.8945 72.5126 72.3326 92.0745 48.2 92.08Z" transform="matrix(1.00349 0 0 1 98 122)"/><path d="M68.1 18.28 64.8 18.28 64.8 34.78 31.7 34.78 31.7 18.28 28.3 18.28C11.6762 29.2469 7.09043 51.6136 18.0573 68.2373 20.7436 72.3092 24.2281 75.7937 28.3 78.48L31.7 78.48 31.7 62 64.8 62 64.8 78.5 68.1 78.5C84.7238 67.5431 89.3177 45.1846 78.3608 28.5608 75.6714 24.4804 72.1804 20.9894 68.1 18.3ZM27.1 72C14.0579 60.4117 12.8793 40.4447 24.4677 27.4026 24.4685 27.4017 24.4692 27.4009 24.47 27.4 25.296 26.4773 26.1741 25.6025 27.1 24.78ZM64.8 57.4 31.7 57.4 31.7 39.28 64.8 39.28ZM69.3 71.9 69.3 61.9 69.3 61.9 69.3 34.78 69.3 34.78 69.3 24.78C82.3059 36.4586 83.3819 56.4694 71.7032 69.4753 71.6988 69.4802 71.6944 69.4851 71.69 69.49 70.9338 70.3262 70.1362 71.1238 69.3 71.88Z" transform="matrix(1.00349 0 0 1 98 122)"/></g></g></g></svg>