<svg xmlns="http://www.w3.org/2000/svg" xmlns:xlink="http://www.w3.org/1999/xlink" width="500" zoomAndPan="magnify" viewBox="0 0 375 374.999991" height="500" preserveAspectRatio="xMidYMid meet" version="1.0"><defs><g/><clipPath id="8dafff4fe5"><path d="M 121.546875 101.457031 L 269.09375 101.457031 L 269.09375 318.746094 L 121.546875 318.746094 Z M 121.546875 101.457031 " clip-rule="nonzero"/></clipPath><clipPath id="1613e30420"><path d="M 185 67.429688 L 221 67.429688 L 221 102 L 185 102 Z M 185 67.429688 " clip-rule="nonzero"/></clipPath></defs><rect x="-37.5" width="450" fill="#ffffff" y="-37.499999" height="449.999989" fill-opacity="1"/><rect x="-37.5" width="450" fill="#ffffff" y="-37.499999" height="449.999989" fill-opacity="1"/><rect x="-37.5" width="450" fill="#ffffff" y="-37.499999" height="449.999989" fill-opacity="1"/><g clip-path="url(#8dafff4fe5)"><path fill="#990000" d="M 194.4375 312.714844 L 192.660156 313.34375 C 189.140625 313.972656 182.898438 314.84375 179.769531 314.84375 C 149.816406 314.84375 125.449219 290.5 125.449219 260.570312 C 125.449219 230.46875 144.894531 208.289062 172.175781 206.535156 L 187.433594 240.402344 C 187.441406 240.414062 187.449219 240.425781 187.457031 240.441406 C 187.472656 240.476562 187.492188 240.511719 187.507812 240.546875 C 187.523438 240.570312 187.535156 240.59375 187.550781 240.613281 C 187.570312 240.644531 187.589844 240.675781 187.609375 240.707031 C 187.625 240.730469 187.640625 240.753906 187.660156 240.777344 C 187.679688 240.804688 187.703125 240.832031 187.722656 240.855469 C 187.742188 240.878906 187.761719 240.902344 187.78125 240.921875 C 187.804688 240.949219 187.828125 240.972656 187.851562 240.996094 C 187.875 241.015625 187.894531 241.035156 187.917969 241.054688 C 187.941406 241.078125 187.96875 241.101562 187.996094 241.121094 C 188.019531 241.140625 188.042969 241.160156 188.066406 241.175781 C 188.09375 241.195312 188.121094 241.214844 188.148438 241.234375 C 188.175781 241.25 188.203125 241.265625 188.230469 241.28125 C 188.257812 241.296875 188.285156 241.3125 188.3125 241.328125 C 188.34375 241.34375 188.375 241.359375 188.40625 241.375 C 188.421875 241.378906 188.4375 241.390625 188.453125 241.394531 C 188.464844 241.402344 188.476562 241.402344 188.488281 241.410156 C 188.519531 241.421875 188.550781 241.433594 188.582031 241.445312 C 188.613281 241.453125 188.644531 241.464844 188.671875 241.472656 C 188.703125 241.480469 188.730469 241.488281 188.761719 241.496094 C 188.792969 241.503906 188.828125 241.511719 188.863281 241.519531 C 188.890625 241.523438 188.917969 241.527344 188.945312 241.53125 C 188.980469 241.535156 189.015625 241.542969 189.050781 241.542969 C 189.078125 241.546875 189.105469 241.546875 189.136719 241.546875 C 189.167969 241.550781 189.203125 241.550781 189.238281 241.550781 C 189.269531 241.550781 189.296875 241.546875 189.328125 241.546875 C 189.363281 241.542969 189.394531 241.542969 189.425781 241.539062 C 189.457031 241.535156 189.488281 241.53125 189.519531 241.527344 C 189.550781 241.519531 189.582031 241.515625 189.613281 241.511719 C 189.644531 241.503906 189.671875 241.496094 189.703125 241.488281 C 189.738281 241.480469 189.769531 241.472656 189.800781 241.460938 C 189.828125 241.453125 189.855469 241.441406 189.882812 241.433594 C 189.917969 241.421875 189.953125 241.40625 189.984375 241.390625 C 189.996094 241.386719 190.007812 241.382812 190.019531 241.378906 C 190.027344 241.375 190.035156 241.371094 190.042969 241.363281 C 190.121094 241.328125 190.199219 241.289062 190.269531 241.242188 C 190.273438 241.242188 190.273438 241.242188 190.277344 241.238281 C 190.347656 241.195312 190.414062 241.140625 190.476562 241.085938 C 190.496094 241.074219 190.507812 241.058594 190.527344 241.046875 C 190.585938 240.992188 190.640625 240.9375 190.695312 240.875 C 190.695312 240.871094 190.699219 240.871094 190.699219 240.867188 C 190.753906 240.804688 190.804688 240.738281 190.847656 240.667969 C 190.859375 240.648438 190.871094 240.632812 190.882812 240.613281 C 190.917969 240.558594 190.949219 240.5 190.976562 240.4375 C 190.984375 240.421875 190.992188 240.40625 191 240.386719 C 191.003906 240.378906 191.007812 240.371094 191.011719 240.363281 L 209.429688 197.109375 L 220.753906 193.957031 L 220.753906 206.109375 C 220.753906 207.472656 221.863281 208.578125 223.226562 208.578125 L 249.578125 208.578125 L 249.578125 239.109375 C 249.578125 240.472656 250.6875 241.582031 252.054688 241.582031 L 265.195312 241.582031 L 265.195312 299.363281 L 221.75 299.363281 C 221.367188 299.363281 220.984375 299.453125 220.640625 299.625 Z M 204.613281 198.453125 L 189.164062 234.734375 L 176.363281 206.320312 Z M 269.097656 300.792969 L 269.097656 240.152344 C 269.097656 238.789062 267.988281 237.679688 266.625 237.679688 L 253.484375 237.679688 L 253.484375 207.148438 C 253.484375 205.785156 252.375 204.675781 251.011719 204.675781 L 224.660156 204.675781 L 224.660156 192.074219 C 224.660156 191.292969 224.304688 190.574219 223.679688 190.105469 C 223.058594 189.632812 222.273438 189.484375 221.519531 189.691406 L 211.386719 192.515625 L 248.851562 104.511719 C 248.960938 104.261719 249.007812 104.003906 249.007812 103.75 C 249.007812 102.992188 248.5625 102.269531 247.820312 101.953125 C 246.828125 101.53125 245.679688 101.992188 245.257812 102.984375 L 206.570312 193.855469 L 175.476562 202.515625 C 175.203125 202.519531 174.929688 202.527344 174.65625 202.53125 L 129.636719 102.609375 C 129.195312 101.628906 128.039062 101.191406 127.054688 101.632812 C 126.070312 102.078125 125.632812 103.230469 126.074219 104.214844 L 170.472656 202.753906 C 164.542969 203.285156 158.890625 204.734375 153.621094 207.085938 C 147.105469 209.996094 141.339844 214.195312 136.488281 219.570312 C 126.851562 230.238281 121.542969 244.800781 121.542969 260.570312 C 121.542969 276.109375 127.601562 290.71875 138.597656 301.707031 C 149.59375 312.695312 164.214844 318.746094 179.769531 318.746094 C 183.367188 318.746094 190.078125 317.777344 193.464844 317.164062 C 193.59375 317.140625 193.726562 317.105469 193.847656 317.0625 L 195.828125 316.363281 C 195.921875 316.332031 196.019531 316.289062 196.105469 316.246094 L 222.085938 303.265625 L 266.625 303.265625 C 267.988281 303.265625 269.097656 302.15625 269.097656 300.792969 " fill-opacity="1" fill-rule="nonzero"/></g><path fill="#990000" d="M 149.757812 108.1875 C 149.757812 101.734375 155.011719 96.488281 161.46875 96.488281 C 167.925781 96.488281 173.179688 101.734375 173.179688 108.1875 C 173.179688 114.640625 167.925781 119.886719 161.46875 119.886719 C 155.011719 119.886719 149.757812 114.640625 149.757812 108.1875 Z M 177.085938 108.1875 C 177.085938 99.582031 170.082031 92.582031 161.46875 92.582031 C 152.859375 92.582031 145.855469 99.582031 145.855469 108.1875 C 145.855469 116.789062 152.859375 123.792969 161.46875 123.792969 C 170.082031 123.792969 177.085938 116.789062 177.085938 108.1875 " fill-opacity="1" fill-rule="nonzero"/><path fill="#990000" d="M 215.261719 123.789062 L 215.261719 147.863281 L 191.167969 147.863281 L 191.167969 123.789062 Z M 187.261719 149.816406 C 187.261719 150.890625 188.136719 151.765625 189.214844 151.765625 L 217.214844 151.765625 C 218.292969 151.765625 219.167969 150.890625 219.167969 149.816406 L 219.167969 121.839844 C 219.167969 120.761719 218.292969 119.886719 217.214844 119.886719 L 189.214844 119.886719 C 188.136719 119.886719 187.261719 120.761719 187.261719 121.839844 L 187.261719 149.816406 " fill-opacity="1" fill-rule="nonzero"/><g clip-path="url(#1613e30420)"><path fill="#990000" d="M 216.769531 96.066406 L 192.238281 84.398438 L 216.769531 72.734375 Z M 217.882812 67.882812 L 186.851562 82.636719 C 186.171875 82.960938 185.738281 83.648438 185.738281 84.398438 C 185.738281 85.152344 186.171875 85.839844 186.851562 86.164062 L 217.882812 100.917969 C 218.488281 101.207031 219.199219 101.164062 219.765625 100.804688 C 220.332031 100.449219 220.675781 99.824219 220.675781 99.15625 L 220.675781 69.644531 C 220.675781 68.976562 220.332031 68.351562 219.765625 67.992188 C 219.199219 67.636719 218.488281 67.59375 217.882812 67.882812 " fill-opacity="1" fill-rule="nonzero"/></g><g fill="#990000" fill-opacity="1"><g transform="translate(27.392185, 216.925171)"><g><path d="M 37.34375 1.453125 C 26.644531 1.453125 18.910156 -1.921875 14.140625 -8.671875 C 9.378906 -15.429688 7 -25.476562 7 -38.8125 L 7 -78.34375 C 7 -87.488281 7.945312 -95 9.84375 -100.875 C 11.738281 -106.757812 14.992188 -111.28125 19.609375 -114.4375 C 24.234375 -117.601562 30.582031 -119.1875 38.65625 -119.1875 C 49.550781 -119.1875 57.40625 -116.414062 62.21875 -110.875 C 67.03125 -105.332031 69.4375 -96.628906 69.4375 -84.765625 L 69.4375 -80.390625 L 53.984375 -80.390625 L 53.984375 -84.03125 C 53.984375 -89.675781 53.640625 -94.03125 52.953125 -97.09375 C 52.273438 -100.15625 50.84375 -102.460938 48.65625 -104.015625 C 46.46875 -105.578125 43.234375 -106.359375 38.953125 -106.359375 C 34.378906 -106.359375 30.972656 -105.3125 28.734375 -103.21875 C 26.503906 -101.125 25.070312 -98.328125 24.4375 -94.828125 C 23.800781 -91.328125 23.484375 -86.660156 23.484375 -80.828125 L 23.484375 -37.0625 C 23.484375 -28.007812 24.578125 -21.515625 26.765625 -17.578125 C 28.953125 -13.640625 33.160156 -11.671875 39.390625 -11.671875 C 45.515625 -11.671875 49.71875 -13.8125 52 -18.09375 C 54.289062 -22.375 55.4375 -29.226562 55.4375 -38.65625 L 55.4375 -46.828125 L 40.40625 -46.828125 L 40.40625 -58.5 L 70.3125 -58.5 L 70.3125 0 L 59.96875 0 L 58.359375 -13.5625 C 54.660156 -3.550781 47.65625 1.453125 37.34375 1.453125 Z M 37.34375 1.453125 "/></g></g></g><g fill="#990000" fill-opacity="1"><g transform="translate(144.524909, 216.925171)"><g/></g></g><g fill="#990000" fill-opacity="1"><g transform="translate(217.037033, 216.925171)"><g/></g></g><g fill="#990000" fill-opacity="1"><g transform="translate(289.483594, 216.925171)"><g><path d="M 9.1875 -118.171875 L 25.671875 -118.171875 L 25.671875 -11.8125 L 55.875 -11.8125 L 55.875 0 L 9.1875 0 Z M 9.1875 -118.171875 "/></g></g></g></svg>