<svg width="38" height="46" xmlns="http://www.w3.org/2000/svg" xmlns:xlink="http://www.w3.org/1999/xlink" overflow="hidden"><defs><clipPath id="clip0"><rect x="104" y="431" width="38" height="46"/></clipPath><clipPath id="clip1"><rect x="105" y="432" width="36" height="45"/></clipPath><clipPath id="clip2"><rect x="105" y="432" width="36" height="45"/></clipPath><clipPath id="clip3"><rect x="105" y="432" width="265" height="45"/></clipPath></defs><g clip-path="url(#clip0)" transform="translate(-104 -431)"><g clip-path="url(#clip1)"><g clip-path="url(#clip2)"><g clip-path="url(#clip3)"><path d="M13.0421 1.38325C16.6978 1.38325 20.0571 3.16171 22.4284 5.92822 24.7009 8.59591 26.0841 12.2516 26.0841 16.3026 26.0841 16.599 26.0841 16.8954 26.0841 17.1918L20.9464 17.1918C20.9464 16.8954 20.9464 16.599 20.9464 16.3026 20.9464 13.5361 19.9583 10.9672 18.4763 9.18873 17.093 7.50907 15.1169 6.52104 12.9433 6.52104 10.7696 6.52104 8.89232 7.50907 7.41027 9.18873 6.02702 10.7696 5.13779 13.0421 4.94018 15.5122 4.94018 15.7098 4.94018 16.0062 4.94018 16.2038 4.94018 16.4014 4.94018 16.6978 4.94018 16.8954 5.13779 19.3655 6.02702 21.638 7.41027 23.2188 8.79352 24.8985 10.7696 25.8865 12.9433 25.8865L22.8236 25.8865C22.626 26.0841 22.5272 26.2818 22.3296 26.4794 19.9583 29.2459 16.599 31.0243 12.9433 31.0243 9.28754 31.0243 6.12582 29.4435 3.65573 26.677 1.38325 23.9105 0 20.2547 0 16.3026 0 12.2516 1.38325 8.59591 3.65573 5.92822 6.12582 3.06291 9.38634 1.38325 13.0421 1.38325" fill="#BDBEBF" transform="matrix(1 0 0 1.0106 105 432.283)"/><path d="M13.0421 18.9703 26.0841 18.9703C27.9614 18.9703 29.4435 19.7607 30.5303 20.8476 31.0243 21.3416 31.4195 22.0332 31.6171 22.626 31.9136 23.3176 32.0124 24.0093 32.0124 24.7009 32.0124 26.2818 31.4195 27.8626 29.9375 29.1471L29.9375 29.1471 21.9344 36.4585C21.638 36.6561 21.5392 36.9525 21.5392 37.1501 21.5392 37.249 21.5392 37.3478 21.5392 37.4466 21.5392 37.5454 21.638 37.5454 21.638 37.6442 21.7368 37.743 21.9344 37.8418 22.2308 37.8418L35.3717 37.8418 35.3717 42.9796 22.2308 42.9796C20.4523 42.9796 18.8715 42.2879 17.8834 41.1023 17.3894 40.6083 16.9942 39.9166 16.7966 39.3238 16.5002 38.6322 16.4014 37.9406 16.4014 37.249 16.4014 35.6681 16.9942 33.9884 18.3775 32.8028L26.3806 25.4913 26.3806 25.4913C26.677 25.2937 26.7758 24.9973 26.7758 24.7997 26.7758 24.7009 26.7758 24.6021 26.7758 24.6021 26.7758 24.5033 26.677 24.4045 26.677 24.4045 26.5782 24.2069 26.2818 24.1081 25.9853 24.1081L13.0421 24.1081 13.0421 18.9703Z" fill="#D9B78E" transform="matrix(1 0 0 1.0106 105 432.283)"/><path d="M127.555 42.5843 127.555 32.6052 129.136 32.6052 129.136 42.5843 127.555 42.5843ZM123.998 42.5843 122.813 40.0155 118.861 40.0155 117.675 42.5843 115.995 42.5843 120.837 32.21 125.678 42.5843 123.998 42.5843ZM119.454 38.6322 122.22 38.6322 121.232 36.3597C121.133 36.2609 121.133 36.0633 121.034 35.8657 120.936 35.6681 120.936 35.4705 120.837 35.2729 120.738 35.4705 120.738 35.6681 120.639 35.8657 120.54 36.0633 120.54 36.2609 120.442 36.3597L119.454 38.6322ZM106.016 42.5843 106.016 32.6052 107.597 32.6052 107.597 36.2609 112.537 36.2609 112.537 32.6052 114.118 32.6052 114.118 42.5843 112.537 42.5843 112.537 37.743 107.597 37.743 107.597 42.5843 106.016 42.5843ZM99.4952 37.4466 103.447 37.4466C103.447 37.5454 103.447 37.6442 103.447 37.743 103.447 38.0394 103.447 38.237 103.447 38.4346 103.447 39.8178 103.052 40.9047 102.262 41.6951 101.471 42.4855 100.286 42.8808 98.8036 42.8808 98.0132 42.8808 97.2227 42.782 96.6299 42.4855 95.9383 42.2879 95.4443 41.8927 94.9502 41.3987 94.4562 40.9047 94.1598 40.3119 93.8634 39.719 93.567 39.0274 93.4682 38.3358 93.4682 37.6442 93.4682 36.8537 93.567 36.1621 93.8634 35.5693 94.1598 34.9765 94.4562 34.3836 95.049 33.8896 95.5431 33.3956 96.1359 33.0004 96.7287 32.8028 97.4203 32.5064 98.112 32.4076 98.8036 32.4076 99.594 32.4076 100.286 32.5064 100.878 32.8028 101.471 33.0992 102.064 33.4944 102.558 34.0872L101.372 34.9765C101.076 34.5813 100.681 34.2848 100.187 34.0872 99.7916 33.8896 99.2976 33.7908 98.8036 33.7908 97.7168 33.7908 96.8275 34.186 96.1359 34.8777 95.4443 35.5693 95.1479 36.4585 95.1479 37.5454 95.1479 38.6322 95.4443 39.6202 96.1359 40.3119 96.8275 41.0035 97.7168 41.3987 98.8036 41.3987 99.6928 41.3987 100.483 41.2011 100.977 40.7071 101.471 40.3119 101.768 39.719 101.768 38.9286L101.768 38.8298 99.3964 38.8298 99.3964 37.4466ZM81.8094 42.5843 81.8094 32.21 88.1328 38.3358C88.3304 38.5334 88.528 38.731 88.6268 38.9286 88.8244 39.1262 89.022 39.3238 89.2196 39.6202L89.2196 32.704 90.7017 32.704 90.7017 43.0784 84.1806 36.8537C83.983 36.6561 83.8842 36.4585 83.6866 36.3597 83.489 36.1621 83.3902 35.9645 83.1926 35.7669L83.1926 42.782 81.8094 42.782ZM78.2524 42.5843 77.0668 40.0155 73.1147 40.0155 71.929 42.5843 70.2494 42.5843 75.0907 32.21 80.0309 42.5843 78.2524 42.5843ZM73.8063 38.6322 76.5728 38.6322 75.5847 36.3597C75.4859 36.2609 75.4859 36.0633 75.3871 35.8657 75.2883 35.6681 75.2883 35.4705 75.1895 35.2729 75.0907 35.4705 75.0907 35.6681 74.9919 35.8657 74.8931 36.0633 74.8931 36.2609 74.7943 36.3597L73.8063 38.6322ZM60.369 42.5843 60.369 32.6052 61.9498 32.6052 61.9498 36.2609 66.89 36.2609 66.89 32.6052 68.4709 32.6052 68.4709 42.5843 66.89 42.5843 66.89 37.743 61.9498 37.743 61.9498 42.5843 60.369 42.5843ZM51.1803 40.6083 52.4647 40.0155C52.5635 40.5095 52.8599 40.8059 53.1563 41.0035 53.4527 41.2011 53.9468 41.3987 54.4408 41.3987 54.9348 41.3987 55.33 41.2999 55.6264 41.0035 55.9228 40.7071 56.0216 40.4107 56.0216 39.9166 56.0216 39.3238 55.5276 38.8298 54.5396 38.3358 54.4408 38.237 54.342 38.237 54.2432 38.1382 53.1563 37.6442 52.3659 37.1501 52.0695 36.6561 51.6743 36.2609 51.4767 35.6681 51.4767 35.0753 51.4767 34.2848 51.7731 33.5932 52.2671 33.0992 52.8599 32.6052 53.5515 32.3088 54.4408 32.3088 55.1324 32.3088 55.824 32.4076 56.318 32.704 56.8121 33.0004 57.2073 33.3956 57.3061 33.8896L56.0216 34.5813C55.824 34.2848 55.6264 33.9884 55.33 33.8896 55.1324 33.7908 54.836 33.692 54.5396 33.692 54.1444 33.692 53.7492 33.7908 53.4527 33.9884 53.1563 34.186 53.0575 34.4825 53.0575 34.8777 53.0575 35.4705 53.6503 36.0633 54.7372 36.5573 54.836 36.5573 54.9348 36.6561 54.9348 36.6561 55.9228 37.1501 56.6145 37.5454 57.0097 38.0394 57.4049 38.4346 57.6025 39.0274 57.6025 39.719 57.6025 40.7071 57.3061 41.3987 56.7133 41.9915 56.1204 42.5843 55.33 42.782 54.2432 42.782 53.3539 42.782 52.6623 42.5843 52.1683 42.1891 51.7731 41.8927 51.3779 41.2999 51.1803 40.6083Z" fill="#231815" transform="matrix(1 0 0 1.0106 105 432.283)"/><path d="M151.268 42.1891 151.268 32.21 152.849 32.21 152.849 42.1891 151.268 42.1891ZM147.02 40.9047 149.193 43.1772 147.217 43.1772 145.933 41.7939C145.439 41.9915 145.044 42.1891 144.55 42.2879 144.056 42.3867 143.562 42.4855 143.068 42.4855 142.376 42.4855 141.684 42.3867 141.092 42.0903 140.4 41.7939 139.906 41.3987 139.412 41.0035 138.918 40.5095 138.523 39.9166 138.226 39.3238 137.93 38.731 137.831 38.0394 137.831 37.249 137.831 36.5573 137.93 35.8657 138.226 35.1741 138.523 34.5813 138.918 33.9884 139.412 33.4944 139.906 33.0004 140.499 32.6052 141.092 32.4076 141.783 32.1112 142.475 32.0124 143.166 32.0124 143.858 32.0124 144.55 32.1112 145.241 32.4076 145.933 32.704 146.427 33.0004 146.921 33.4944 147.415 33.9884 147.81 34.5813 148.107 35.1741 148.403 35.7669 148.502 36.4585 148.502 37.1501 148.502 37.8418 148.403 38.5334 148.107 39.1262 147.909 39.8178 147.514 40.4107 147.02 40.9047ZM145.044 38.6322 146.032 39.6202C146.328 39.225 146.526 38.8298 146.723 38.4346 146.822 38.0394 146.921 37.6442 146.921 37.1501 146.921 36.6561 146.822 36.1621 146.625 35.6681 146.427 35.1741 146.229 34.7789 145.834 34.4825 145.439 34.0872 145.044 33.8896 144.648 33.692 144.154 33.4944 143.759 33.3956 143.265 33.3956 142.771 33.3956 142.277 33.4944 141.882 33.692 141.388 33.8896 140.993 34.186 140.696 34.4825 140.301 34.8777 140.103 35.2729 139.906 35.6681 139.708 36.1621 139.609 36.5573 139.609 37.1501 139.609 38.237 140.005 39.1262 140.696 39.8178 141.388 40.5095 142.277 40.9047 143.364 40.9047 143.66 40.9047 143.957 40.9047 144.154 40.8059 144.451 40.7071 144.648 40.6083 144.945 40.5095L143.166 38.5334 145.044 38.5334Z" fill="#231815" transform="matrix(1 0 0 1.0106 105 432.283)"/><path d="M182.787 42.5843 182.787 32.6052 184.367 32.6052 184.367 42.5843 182.787 42.5843ZM171.424 42.5843 171.424 32.6052 173.005 32.6052 173.005 36.2609 177.945 36.2609 177.945 32.6052 179.526 32.6052 179.526 42.5843 177.945 42.5843 177.945 37.743 173.005 37.743 173.005 42.5843 171.424 42.5843ZM161.445 42.5843 166.583 33.9884 162.334 33.9884 162.334 32.6052 169.053 32.6052 164.014 41.2011 169.152 41.2011 169.152 42.6832 161.445 42.6832Z" fill="#231815" transform="matrix(1 0 0 1.0106 105 432.283)"/><path d="M257.877 42.5843 257.877 32.6052 263.509 32.6052 263.509 33.9884 259.557 33.9884 259.557 36.4585 263.509 36.4585 263.509 37.8418 259.557 37.8418 259.557 41.1023 263.509 41.1023 263.509 42.5843 257.877 42.5843ZM253.135 33.9884 253.135 42.5843 251.554 42.5843 251.554 33.9884 248.886 33.9884 248.886 32.6052 255.802 32.6052 255.802 33.9884 253.135 33.9884ZM238.512 32.6052 240.093 32.6052 240.093 38.731C240.093 39.6202 240.29 40.3119 240.686 40.8059 241.081 41.2999 241.772 41.4975 242.563 41.4975 243.353 41.4975 244.045 41.2999 244.44 40.8059 244.835 40.3119 245.033 39.719 245.033 38.731L245.033 32.6052 246.614 32.6052 246.614 38.8298C246.614 40.2131 246.317 41.2011 245.626 41.8927 244.934 42.5843 243.946 42.8808 242.563 42.8808 241.18 42.8808 240.192 42.5843 239.5 41.8927 238.808 41.2011 238.512 40.2131 238.512 38.8298L238.512 32.6052ZM233.868 33.9884 233.868 42.5843 232.188 42.5843 232.188 33.9884 229.521 33.9884 229.521 32.6052 236.437 32.6052 236.437 33.9884 233.868 33.9884ZM225.766 42.5843 225.766 32.6052 227.347 32.6052 227.347 42.5843 225.766 42.5843ZM221.024 33.9884 221.024 42.5843 219.443 42.5843 219.443 33.9884 216.775 33.9884 216.775 32.6052 223.691 32.6052 223.691 33.9884 221.024 33.9884ZM208.673 40.6083 209.958 40.0155C210.056 40.5095 210.353 40.8059 210.649 41.0035 210.946 41.2011 211.44 41.3987 211.934 41.3987 212.428 41.3987 212.823 41.2999 213.119 41.0035 213.416 40.7071 213.515 40.4107 213.515 39.9166 213.515 39.3238 213.021 38.8298 212.033 38.3358 211.934 38.237 211.835 38.237 211.736 38.1382 210.649 37.6442 209.859 37.1501 209.562 36.6561 209.167 36.2609 208.97 35.6681 208.97 35.0753 208.97 34.2848 209.266 33.5932 209.76 33.0992 210.353 32.6052 211.044 32.3088 211.934 32.3088 212.625 32.3088 213.317 32.4076 213.811 32.704 214.305 33.0004 214.7 33.3956 214.799 33.8896L213.515 34.5813C213.317 34.2848 213.119 33.9884 212.823 33.8896 212.625 33.7908 212.329 33.692 212.033 33.692 211.637 33.692 211.242 33.7908 210.946 33.9884 210.649 34.186 210.55 34.4825 210.55 34.8777 210.55 35.4705 211.143 36.0633 212.23 36.5573 212.329 36.5573 212.428 36.6561 212.428 36.6561 213.416 37.1501 214.107 37.5454 214.503 38.0394 214.898 38.4346 215.095 39.0274 215.095 39.719 215.095 40.7071 214.799 41.3987 214.206 41.9915 213.613 42.5843 212.823 42.782 211.736 42.782 210.847 42.782 210.155 42.5843 209.661 42.1891 209.167 41.8927 208.871 41.2999 208.673 40.6083ZM197.113 42.5843 197.113 32.21 203.437 38.3358C203.634 38.5334 203.832 38.731 203.931 38.9286 204.128 39.1262 204.326 39.3238 204.523 39.6202L204.523 32.704 206.005 32.704 206.005 43.0784 199.484 36.8537C199.287 36.6561 199.188 36.4585 198.99 36.3597 198.793 36.1621 198.694 35.9645 198.496 35.7669L198.496 42.782 197.113 42.782ZM192.272 42.5843 192.272 32.6052 193.853 32.6052 193.853 42.5843 192.272 42.5843Z" fill="#231815" transform="matrix(1 0 0 1.0106 105 432.283)"/><path d="M135.361 11.8564 132.002 11.8564 132.002 15.9074 135.361 15.9074 135.361 11.8564ZM117.675 18.5751 122.418 18.5751 122.418 15.7098 117.675 15.7098 117.675 18.5751ZM115.106 20.5511 118.564 20.5511 116.786 24.4045 113.13 24.4045 115.106 20.5511ZM117.675 8.00309 117.675 10.4732 122.418 10.4732 122.418 8.00309 117.675 8.00309ZM117.675 14.4253 122.418 14.4253 122.418 11.6588 117.675 11.6588 117.675 14.4253ZM135.361 6.71864 134.472 6.71864 132.002 6.71864 132.002 10.4732 135.361 10.4732 135.361 6.71864ZM126.864 19.8595 112.142 19.8595 112.142 18.4763 114.019 18.4763 114.019 8.00309 112.142 8.00309 112.142 6.71864 114.019 6.71864 114.019 5.23659 117.576 5.23659 117.576 6.71864 122.319 6.71864 122.319 5.23659 125.876 5.23659 125.876 6.71864 127.753 6.71864 126.765 8.00309 125.777 8.00309 125.777 18.5751 127.654 18.5751 126.864 19.8595ZM139.017 5.23659 139.017 24.4045 133.978 24.4045 133.385 23.3176 135.361 23.3176 135.361 17.2906 132.002 17.2906 132.002 20.6499 130.618 24.5033 123.307 24.5033 121.232 20.6499 124.987 20.6499 126.765 24.3057 128.346 20.4523 128.346 5.23659 139.017 5.23659Z" fill="#231815" transform="matrix(1 0 0 1.0106 105 432.283)"/><path d="M158.679 15.2158 154.726 15.2158 151.565 12.2516 155.517 12.2516 158.679 15.2158ZM150.083 20.7488 150.083 22.9224 165.694 22.9224 165.694 20.7488 150.083 20.7488ZM148.798 9.88036 150.577 7.60788 148.798 7.60788 147.909 8.89232 143.957 8.89232 146.427 5.03898 150.379 5.03898 149.589 6.32343 158.283 6.32343 157.493 7.70668 154.43 7.70668 152.652 9.97916 158.975 9.97916 158.185 11.56 151.466 11.56 148.502 15.3146 144.55 15.3146 147.514 11.56 144.253 11.56 144.253 9.88036 148.798 9.88036ZM167.077 7.31147 163.026 7.31147 163.026 13.1409 167.077 13.1409 167.077 7.31147ZM159.469 5.82941 163.026 5.82941 167.077 5.82941 170.634 5.82941 170.634 7.31147 170.634 13.1409 170.634 14.6229 167.077 14.6229 163.026 14.6229 159.469 14.6229 159.469 13.1409 159.469 7.31147 159.469 5.82941ZM146.427 15.9074 165.694 15.9074 165.694 17.3894 164.903 17.3894 150.083 17.3894 150.083 19.2667 165.694 19.2667 165.694 15.9074 169.251 15.9074 169.251 24.4045 146.427 24.4045 146.427 15.9074Z" fill="#231815" transform="matrix(1 0 0 1.0106 105 432.283)"/><path d="M181.601 23.0212 183.281 23.0212 183.281 13.6349 181.601 13.6349 181.601 23.0212ZM193.161 13.3385 196.817 13.3385 196.817 7.11386 193.161 7.11386 193.161 13.3385ZM186.442 12.1528 186.442 24.4045 178.143 24.4045 178.143 14.8205 175.673 14.8205 179.526 7.50907 177.254 7.50907 177.254 6.02702 186.047 6.02702 185.553 7.50907 182.984 7.50907 180.317 12.054 186.442 12.054ZM203.14 5.6318 202.35 7.11386 200.472 7.11386 200.472 13.3385 203.437 13.3385 202.844 14.8205 200.374 14.8205 200.374 24.5033 196.817 24.5033 196.817 14.8205 193.161 14.8205 193.161 19.7607 192.371 24.5033 188.814 24.5033 189.604 19.7607 189.604 14.8205 187.134 14.8205 187.134 13.3385 189.604 13.3385 189.604 7.11386 186.936 7.11386 186.936 5.6318 203.14 5.6318Z" fill="#231815" transform="matrix(1 0 0 1.0106 105 432.283)"/><path d="M225.569 12.6469 223 8.79352 226.952 8.79352 229.422 12.6469Z" fill="#231815" transform="matrix(1 0 0 1.0106 105 432.283)"/><path d="M216.676 8.79352 214.107 12.6469 210.254 12.6469 212.724 8.79352Z" fill="#231815" transform="matrix(1 0 0 1.0106 105 432.283)"/><path d="M221.913 6.22463 225.766 6.22463 229.817 6.22463 230.212 6.22463 233.374 6.22463 233.374 8.99113 229.817 8.99113 229.817 7.60788 228.829 7.60788 225.766 7.60788 210.649 7.60788 210.649 8.99113 207.092 8.99113 207.092 6.22463 218.356 6.22463 218.356 4.74257 221.913 4.74257Z" fill="#231815" transform="matrix(1 0 0 1.0106 105 432.283)"/><path d="M228.434 23.0212 233.868 23.0212 232.979 24.4045 224.877 24.4045 224.877 15.2158 223.988 15.2158 220.134 15.2158 218.652 15.2158 213.119 24.4045 209.266 24.4045 214.799 15.2158 208.574 15.2158 208.574 13.8325 215.392 13.8325 216.775 11.7576 220.628 11.7576 219.344 13.8325 220.134 13.8325 225.766 13.8325 228.434 13.8325Z" fill="#231815" transform="matrix(1 0 0 1.0106 105 432.283)"/><path d="M242.168 14.0301 243.452 6.91625 242.168 6.91625 242.168 14.0301ZM261.335 11.6588 248.689 11.6588 248.689 10.1768 262.126 10.1768 261.335 11.6588ZM250.665 24.3057 247.108 24.3057 251.06 14.5241 247.799 14.5241 247.799 13.0421 263.312 13.0421 262.521 14.5241 259.261 14.5241 259.261 22.9224 263.509 22.9224 262.62 24.4045 255.704 24.4045 255.704 14.5241 254.617 14.5241 250.665 24.3057ZM260.051 7.70668 259.261 7.70668 257.285 7.70668 250.368 7.70668 250.368 8.69472 247.009 8.69472 247.009 6.22463 253.629 6.22463 253.629 5.03898 256.889 5.03898 256.889 6.22463 257.186 6.22463 261.138 6.22463 263.41 6.22463 263.41 8.69472 260.051 8.69472 260.051 7.70668ZM245.033 13.5361 246.416 13.5361 246.416 23.4165 242.76 21.2428 242.76 19.4643 243.65 20.0571 243.65 14.8205 242.168 14.8205 242.168 24.4045 238.907 24.4045 238.907 5.533 246.614 5.533 245.033 13.5361Z" fill="#231815" transform="matrix(1 0 0 1.0106 105 432.283)"/><path d="M75.98 11.2636 75.1895 12.6469 62.5427 12.6469 62.5427 22.8236 76.7704 22.8236 75.8812 24.2069 51.1803 24.2069 51.1803 22.8236 58.6893 22.8236 58.6893 5.23659 62.5427 5.23659 62.5427 11.2636Z" fill="#231815" transform="matrix(1 0 0 1.0106 105 432.283)"/><path d="M94.2586 16.7966 97.9144 16.7966 99.8904 20.2547 96.1359 20.2547 94.2586 16.7966ZM86.3543 9.88036 84.3783 9.88036 86.3543 13.9313 82.8962 13.9313 80.8213 9.78155 82.6986 9.78155 80.6237 5.533 84.0818 5.533 86.3543 9.88036ZM84.2795 24.3057 80.8213 24.3057 82.8962 15.2158 86.3543 15.2158 84.2795 24.3057ZM91.9861 5.03898 91.6897 6.12582 107.004 6.12582 105.72 7.70668 87.4412 7.70668 88.2316 5.03898 91.9861 5.03898ZM102.361 15.5122 91.5909 15.5122 91.5909 20.8476 102.361 20.8476 102.361 15.5122ZM102.361 10.078 101.274 10.078 98.7048 10.078 91.5909 10.078 91.5909 14.0301 95.8395 14.0301 93.8634 10.8684 97.5191 10.8684 99.594 14.0301 102.361 14.0301 102.361 10.078ZM105.917 15.5122 105.917 20.8476 107.795 20.8476 106.609 22.3296 105.917 22.3296 105.917 24.5033 99.8904 24.5033 99.1 23.2188 102.262 23.2188 102.262 22.4284 87.9352 22.4284 87.9352 22.4284 87.9352 22.4284 87.9352 15.7098 87.046 15.7098 87.046 14.3265 87.9352 14.3265 87.9352 8.79352 98.7048 8.79352 103.447 8.79352 106.016 8.79352 106.016 14.1289 107.894 14.1289 106.708 15.5122 105.917 15.5122Z" fill="#231815" transform="matrix(1 0 0 1.0106 105 432.283)"/></g></g></g></g></svg>